<svg xmlns="http://www.w3.org/2000/svg" xmlns:xlink="http://www.w3.org/1999/xlink" fill="none" version="1.1" width="24" height="24" viewBox="0 0 24 24"><defs><clipPath id="master_svg0_1176_44155"><rect x="0" y="0" width="24" height="24" rx="0"/></clipPath></defs><g clip-path="url(#master_svg0_1176_44155)"><g><path d="M21.3496046875,0.5999984741210938C21.9166046875,0.5999984741210938,22.1998046875,0.8831984741210938,22.1998046875,1.4501984741210938L22.1998046875,4.849798474121093C22.1998046875,5.4167984741210935,21.9166046875,5.699998474121093,21.3496046875,5.699998474121093C20.7832046875,5.699998474121093,20.5000046875,5.4167984741210935,20.5000046875,4.849798474121093L20.5000046875,1.4501984741210938C20.5000046875,0.8831984741210938,20.7832046875,0.5999984741210938,21.3496046875,0.5999984741210938ZM2.6500046875,0.5999984741210938C3.2164046875,0.5999984741210938,3.4996046874999998,0.8831984741210938,3.4996046874999998,1.4501984741210938L3.4996046874999998,4.849798474121093C3.4996046874999998,5.4167984741210935,3.2164046875,5.699998474121093,2.6500046875,5.699998474121093C2.0830046875,5.699998474121093,1.7998046875,5.4167984741210935,1.7998046875,4.849798474121093L1.7998046875,1.4501984741210938C1.7998046875,0.8831984741210938,2.0830046875,0.5999984741210938,2.6500046875,0.5999984741210938Z" fill="#0F55FA" fill-opacity="1"/></g><g><path d="M4.3498234375,22.6499953125L4.3498234375,18.3887953125L8.5858234375,21.3965953125L5.6746234375,23.3561953125C5.4138234375,23.5316953125,5.0774734375,23.5488953125,4.8000834375,23.4010953125C4.5226934375,23.2531953125,4.3495284375,22.9642953125,4.3498234375,22.6499953125ZM19.6822234375,22.6499953125L19.6822234375,18.3647953125L15.4210234375,21.3797953125L18.3580234375,23.3561953125C18.6187234375,23.5312953125,18.9547234375,23.5483953125,19.231823437499997,23.4006953125C19.5090234375,23.2528953125,19.6822234375,22.9644953125,19.6822234375,22.6505953125L19.6822234375,22.6499953125ZM20.5000234375,1.450196113586L20.5000234375,15.4139953125C20.4940234375,15.5939953125,20.4226234375,15.7655953125,20.3002234375,15.8969953125L20.2006234375,15.9833953125L12.7396234375,21.2777953125C12.3239234375,21.5607953125,11.7856234375,21.5900953125,11.341623437500001,21.3539953125L11.1796234375,21.2537953125L3.7738234375,15.9659953125C3.6348034375,15.8542953125,3.5416952375,15.6954953125,3.5122235375,15.5195953125L3.4990234375,15.3839953125L3.4990234375,1.4501953125L20.4994234375,1.4501953125L20.5000234375,1.450196113586Z" fill="#0F55FA" fill-opacity="1"/></g><g><path d="M11.31011796875,6.504600524902344L8.06591796875,6.504600524902344L8.06591796875,15.379800524902343L9.07751796875,15.379800524902343L9.07751796875,7.476600524902343L10.30751796875,7.476600524902343C10.02049796875,8.378950524902343,9.67927796875,9.263160524902343,9.28571796875,10.124400524902343C9.94031796875,10.947600524902343,10.27751796875,11.691000524902343,10.27751796875,12.355800524902344C10.27751796875,12.514200524902343,10.23791796875,12.623400524902344,10.15871796875,12.682800524902344C10.07951796875,12.742800524902343,9.92051796875,12.772200524902344,9.68231796875,12.792000524902344C9.54431796875,12.792000524902344,9.35531796875,12.772200524902344,9.127317968749999,12.732000524902343L9.47411796875,13.783800524902343C10.18811796875,13.773600524902344,10.69391796875,13.644600524902344,10.99211796875,13.386600524902343C11.19011796875,13.178400524902344,11.28911796875,12.831600524902344,11.28911796875,12.355800524902344C11.22911796875,11.681400524902344,10.90211796875,10.887600524902343,10.29731796875,9.965400524902343C10.66120796875,9.093230524902344,10.99856796875,8.210220524902343,11.30891796875,7.317601524902344L11.30891796875,6.504601440429344L11.31011796875,6.504600524902344Z" fill="#FFFFFF" fill-opacity="1"/></g><g><path d="M14.2452078125,6.2664041137691875L13.2246078125,6.2664041137691875C13.2144078125,8.170803198242188,13.0656078125,9.727803198242187,12.7782078125,10.917603198242187C12.4212078125,12.325803198242188,11.6478078125,13.515603198242188,10.4580078125,14.497203198242188L11.1420078125,15.330603198242187C12.5400078125,14.209803198242188,13.4226078125,12.801603198242187,13.7796078125,11.106003198242188C14.3556078125,12.742203198242187,15.1776078125,14.140203198242187,16.2294078125,15.300603198242188L16.9926078125,14.408403198242187C15.6144078125,13.059603198242186,14.652607812500001,11.244603198242189,14.1168078125,8.984403198242187C14.2038078125,8.080803198242187,14.2464078125,7.174203198242187,14.2458078125,6.2664031982421875L14.2452078125,6.2664041137691875Z" fill="#FFFFFF" fill-opacity="1"/></g><g><path d="M3.4990470123,15.384000395908203C3.4972470875,15.609601055908204,3.5986470375,15.823800055908203,3.7738474375,15.965401055908202L3.7978474374999998,15.983400055908204L11.179043437499999,21.253801055908205C11.6410434375,21.588601055908203,12.2650434375,21.598201055908202,12.7372434375,21.277801055908203L12.7714434375,21.256201055908203L20.1994234375,15.983400055908204C20.3820234375,15.850101055908203,20.4927234375,15.639940055908204,20.4994234375,15.414000355908204L20.4994234375,15.382801055908203L20.4994234375,17.421601055908205C20.4994234375,17.662201055908202,20.3854234375,17.889001055908203,20.1994234375,18.021001055908204L12.7714434375,23.2950010559082C12.2956534375,23.637841055908204,11.6535534375,23.636631055908204,11.1790534375,23.2920010559082L3.7984464375,18.022201055908205C3.6086824375,17.882461055908202,3.4973585475,17.660261055908204,3.4990470123,17.4246010559082L3.4990470123,15.384600985908204L3.4990470123,15.384000395908203Z" fill="#2066FF" fill-opacity="0.4000000059604645"/></g></g></svg>